<svg aria-hidden="true" style="position: absolute; width: 0; height: 0; overflow: hidden;" version="1.1" xmlns="http://www.w3.org/2000/svg" xmlns:xlink="http://www.w3.org/1999/xlink">
<defs>
<symbol id="icon-bookmark" viewBox="0 0 20 20">
<title>bookmark</title>
<path d="M14 2v17l-4-4-4 4v-17c0-0.553 0.585-1.020 1-1h6c0.689-0.020 1 0.447 1 1z"></path>
</symbol>
<symbol id="icon-chevron-thin-right" viewBox="0 0 20 20">
<title>chevron-thin-right</title>
<path d="M13.25 10l-7.141-7.42c-0.268-0.27-0.268-0.707 0-0.979 0.268-0.27 0.701-0.27 0.969 0l7.83 7.908c0.268 0.271 0.268 0.709 0 0.979l-7.83 7.908c-0.268 0.271-0.701 0.27-0.969 0s-0.268-0.707 0-0.979l7.141-7.417z"></path>
</symbol>
<symbol id="icon-aircraft-take-off" viewBox="0 0 20 20">
<title>aircraft-take-off</title>
<path d="M19.87 6.453c0.119 0.257 0.127 1.29-4.884 3.642l-4.913 2.306c-1.71 0.803-4.191 1.859-5.285 2.151-0.766 0.204-1.497-0.316-1.497-0.316s-2.206-1.975-2.792-2.419c-0.585-0.444-0.535-0.67 0.215-0.91 0.467-0.149 3.13 0.493 4.265 0.78 1.339-0.8 2.562-1.486 3.141-1.798-1.396-1.033-4.008-2.962-4.841-3.55-0.799-0.565 0.010-0.768 0.010-0.768 0.368-0.099 1.162-0.228 1.562-0.144 2.721 0.569 7.263 2.071 7.611 2.186 0.832-0.436 2.128-1.092 2.922-1.465 2.075-0.974 4.327-0.037 4.486 0.305z"></path>
</symbol>
<symbol id="icon-chat" viewBox="0 0 20 20">
<title>chat</title>
<path d="M5.8 12.2v-6.2h-3.8c-1.1 0-2 0.9-2 2v6c0 1.1 0.9 2 2 2h1v3l3-3h5c1.1 0 2-0.9 2-2v-1.82c-0.064 0.014-0.132 0.021-0.2 0.021l-7-0.001zM18 1h-9c-1.1 0-2 0.9-2 2v8h7l3 3v-3h1c1.1 0 2-0.899 2-2v-6c0-1.1-0.9-2-2-2z"></path>
</symbol>
<symbol id="icon-home" viewBox="0 0 20 20">
<title>home</title>
<path d="M20 11.532l-10-7.762-10 7.762v-3.165l10-7.762 10 7.762zM17.5 11.25v7.5h-5v-5h-5v5h-5v-7.5l7.5-5.625z"></path>
</symbol>
<symbol id="icon-location" viewBox="0 0 20 20">
<title>location</title>
<path d="M10 0c-3.452 0-6.25 2.798-6.25 6.25 0 6.25 6.25 13.75 6.25 13.75s6.25-7.5 6.25-13.75c0-3.452-2.798-6.25-6.25-6.25zM10 10c-2.071 0-3.75-1.679-3.75-3.75s1.679-3.75 3.75-3.75 3.75 1.679 3.75 3.75-1.679 3.75-3.75 3.75z"></path>
</symbol>
<symbol id="icon-map2" viewBox="0 0 20 20">
<title>map2</title>
<path d="M13.125 3.75l-6.25-2.5-6.875 2.5v15l6.875-2.5 6.25 2.5 6.875-2.5v-15l-6.875 2.5zM7.5 2.846l5 2v12.307l-5-2v-12.307zM1.25 4.626l5-1.818v12.34l-5 1.818v-12.34zM18.75 15.374l-5 1.818v-12.34l5-1.818v12.34z"></path>
</symbol>
<symbol id="icon-search" viewBox="0 0 20 20">
<title>search</title>
<path d="M19.38 17.019l-4.737-4.029c-0.49-0.441-1.013-0.643-1.437-0.624 1.118-1.31 1.794-3.009 1.794-4.867 0-4.142-3.358-7.5-7.5-7.5s-7.5 3.358-7.5 7.5 3.358 7.5 7.5 7.5c1.857 0 3.557-0.676 4.867-1.794-0.020 0.423 0.183 0.947 0.624 1.437l4.029 4.737c0.69 0.767 1.817 0.831 2.504 0.144s0.623-1.814-0.144-2.504zM7.5 12.5c-2.761 0-5-2.239-5-5s2.239-5 5-5 5 2.239 5 5-2.239 5-5 5z"></path>
</symbol>
<symbol id="icon-key" viewBox="0 0 20 20">
<title>key</title>
<path d="M13.75 0c-3.452 0-6.25 2.798-6.25 6.25 0 0.391 0.036 0.774 0.105 1.145l-7.605 7.605v3.75c0 0.69 0.56 1.25 1.25 1.25h1.25v-1.25h2.5v-2.5h2.5v-2.5h2.5l1.622-1.622c0.664 0.241 1.381 0.372 2.128 0.372 3.452 0 6.25-2.798 6.25-6.25s-2.798-6.25-6.25-6.25zM15.623 6.252c-1.036 0-1.875-0.839-1.875-1.875s0.839-1.875 1.875-1.875 1.875 0.839 1.875 1.875-0.839 1.875-1.875 1.875z"></path>
</symbol>
<symbol id="icon-star-full" viewBox="0 0 20 20">
<title>star-full</title>
<path d="M20 7.755l-6.91-1.004-3.090-6.261-3.090 6.261-6.91 1.004 5 4.874-1.18 6.882 6.18-3.249 6.18 3.249-1.18-6.882 5-4.874z"></path>
</symbol>
</defs>
</svg>
